<svg xmlns="http://www.w3.org/2000/svg" width="512" height="512"><path fill="#7a02bf" d="M0 0h512v512H0z"/><path fill="#fff" d="M145.5 111H118v234.8a27.7 27.7 0 0 0 27.6 27.6h112a65 65 0 0 1-1.5-13.8 68.8 68.8 0 0 1 1.3-13.8H145.5V111m124.3 207.2a69 69 0 0 1 110.5 0h13.8v-152a27.5 27.5 0 0 0-27.6-27.5H200.7a27.7 27.7 0 0 0-27.6 27.6v151.9h96.7m96.7-152V194h-83v-27.6h83m-83 55.2h83V249h-83v-27.6M187 235.3l41.4-82.9v55.3H256l-41.4 82.9v-55.3h-27.7m99 110.5a41.4 41.4 0 1 0 78 27.6 41.4 41.4 0 0 0-78-27.6z"/></svg>
